<svg version="1.1" id="Layer_1" xmlns="http://www.w3.org/2000/svg" xmlns:xlink="http://www.w3.org/1999/xlink" x="0px" y="0px"
	 width="100%" viewBox="0 0 500 500" enable-background="new 0 0 500 500" xml:space="preserve">
<path fill="#000000" opacity="1.000000" stroke="none" 
	d="
M323.000000,501.000000 
	C216.666687,501.000000 110.833359,500.978760 5.000181,501.095428 
	C1.576332,501.099213 0.903033,500.423889 0.905298,497.000031 
	C1.013776,333.000122 1.013757,169.000153 0.905338,5.000257 
	C0.903075,1.576981 1.575761,0.903020 4.999866,0.905285 
	C168.999756,1.013775 332.999725,1.013760 496.999634,0.905354 
	C500.422638,0.903091 501.096985,1.575410 501.094727,4.999746 
	C500.986206,168.999634 500.986237,332.999603 501.094604,496.999512 
	C501.096893,500.422272 500.426025,501.105103 497.000214,501.097076 
	C439.167053,500.961365 381.333466,501.000000 323.000000,501.000000 
z"/>
<path fill="#1A2B36" opacity="1.000000" stroke="none" 
	d="
M257.572266,132.774689 
	C281.692688,134.078369 302.734436,142.191513 321.844421,156.180222 
	C342.092255,171.001831 355.345459,190.797379 363.771545,213.946167 
	C367.029755,222.897369 369.040924,232.398270 369.000946,242.567490 
	C370.091919,248.384109 369.272888,253.804047 369.219910,259.623840 
	C369.149200,270.101410 366.914673,279.750549 363.966003,289.672791 
	C360.552185,294.427429 359.167175,299.978943 356.044434,304.280609 
	C351.074646,311.126587 348.755859,319.571808 342.661774,325.631042 
	C340.950500,327.332550 339.928680,329.340515 339.220398,331.971069 
	C319.402435,353.596741 295.202637,366.232635 266.464691,370.015045 
	C235.284378,374.118927 206.540588,367.332062 181.087296,348.938721 
	C153.735077,329.173157 137.076355,302.609222 132.926468,268.642853 
	C130.148224,245.903259 132.878448,223.963120 141.910385,202.938248 
	C145.371964,194.880295 149.955994,187.355850 155.814545,180.300354 
	C161.014130,178.036438 163.176468,178.980316 167.228302,185.226776 
	C167.612839,186.617233 167.171616,187.785217 168.195694,188.824570 
	C170.249557,189.046341 171.089172,187.567688 171.916306,186.496094 
	C176.351120,180.750427 181.726364,175.943924 186.858292,170.874969 
	C189.048279,168.711868 192.245102,168.368088 194.461517,165.759918 
	C212.139877,153.891037 231.637314,149.374069 252.204681,148.699783 
	C257.326294,148.531876 262.412018,149.893677 267.967255,149.819199 
	C269.916565,149.940964 271.260010,150.733704 273.079224,151.215881 
	C273.904144,151.448166 274.360504,151.625275 275.143066,151.963409 
	C277.608368,153.347275 280.007263,153.436737 282.724731,153.735535 
	C284.050995,153.902603 285.024628,153.998718 286.311157,154.421417 
	C286.866638,154.690628 287.075226,154.822891 287.558228,155.197952 
	C293.305176,158.358795 299.570618,159.755188 304.577087,164.294189 
	C308.932007,167.173325 313.146545,169.649307 316.946808,173.285614 
	C319.295105,176.282608 322.831970,177.310745 325.238678,180.243149 
	C325.955750,180.977707 326.311920,181.559097 326.902710,182.389618 
	C327.214691,182.861694 327.328949,183.057495 327.626770,183.539948 
	C329.044403,185.325394 330.123932,186.955383 331.870087,188.750687 
	C331.902313,186.154343 329.983734,185.311844 328.919983,183.590134 
	C326.089478,179.594131 321.819366,177.470047 319.058167,173.404984 
	C314.744934,170.379318 310.936768,167.223816 306.441650,164.445816 
	C300.924438,160.501053 295.014404,158.074249 288.814941,155.414520 
	C283.274445,154.047882 279.014465,149.849152 272.865601,150.349426 
	C269.551727,149.398712 266.438568,149.467896 263.121857,148.565826 
	C260.799133,148.180573 258.832886,148.167236 256.467651,148.309143 
	C252.727402,148.363953 249.379440,148.491928 245.629059,148.049149 
	C244.397995,147.780731 243.695877,147.369675 242.814758,146.528427 
	C240.763229,143.805527 241.531677,141.641373 243.228134,139.603989 
	C237.067947,143.477722 231.196976,141.875290 228.892776,135.299789 
	C230.325607,133.536758 232.142242,134.159073 234.143936,133.910370 
	C235.441147,133.560013 236.411438,133.482071 237.687012,133.231476 
	C239.375656,133.016434 240.764908,133.011581 242.570953,133.005890 
	C247.678162,131.923996 252.427277,132.719452 257.572266,132.774689 
z"/>
<path fill="#1C2E39" opacity="1.000000" stroke="none" 
	d="
M166.272186,187.181015 
	C163.668213,183.647522 160.893112,180.915527 156.343246,180.037201 
	C174.603699,156.311951 197.895416,140.094101 228.536346,134.981995 
	C233.329941,138.283310 237.558716,142.168152 243.187958,136.801361 
	C244.579208,135.475006 246.671143,135.937485 248.359787,136.819168 
	C249.036072,137.172272 249.902451,137.837280 250.006165,138.470978 
	C250.225601,139.811920 248.930984,139.846848 247.999298,140.053589 
	C245.647858,140.575394 243.473572,141.294266 243.043533,144.516953 
	C242.805923,145.342422 242.503464,145.724976 241.737381,146.140869 
	C237.053085,146.826675 232.249954,145.528549 228.460510,149.665543 
	C223.390533,152.205902 218.315872,153.713135 213.292328,155.385406 
	C206.825653,157.538040 200.755356,160.566437 194.771912,164.546539 
	C189.385803,167.493347 184.660202,170.857849 180.718369,174.997513 
	C178.567215,177.256622 176.293091,179.426300 173.975632,182.009094 
	C172.278976,183.189667 170.553085,183.802505 169.573608,185.824188 
	C169.286179,186.303757 169.160324,186.490311 168.770599,186.890198 
	C167.891129,187.458130 167.242142,187.577911 166.272186,187.181015 
z"/>
<path fill="#22363F" opacity="1.000000" stroke="none" 
	d="
M339.353149,332.091064 
	C338.646698,329.111511 339.669403,326.534821 342.097595,324.358856 
	C346.991943,319.972931 346.694580,312.698730 350.785522,308.007874 
	C355.587128,302.502136 357.877380,295.315979 363.562347,290.166138 
	C359.664124,301.798889 354.243652,312.908875 346.614807,322.855225 
	C344.300232,325.872894 341.957123,328.868683 339.353149,332.091064 
z"/>
<path fill="#5C7390" opacity="1.000000" stroke="none" 
	d="
M369.389252,259.845490 
	C369.001984,254.683060 369.002655,249.315994 369.003784,243.482117 
	C370.964386,248.478027 369.584167,254.095993 369.389252,259.845490 
z"/>
<path fill="#5C7390" opacity="1.000000" stroke="none" 
	d="
M257.787720,132.610001 
	C253.305679,133.000702 248.613464,133.014297 243.454483,133.016464 
	C247.754852,130.930923 252.709442,132.398712 257.787720,132.610001 
z"/>
<path fill="#1C2E39" opacity="1.000000" stroke="none" 
	d="
M237.616547,132.985046 
	C237.077820,133.311310 236.169235,133.601334 234.885864,133.892532 
	C235.235870,133.037201 236.210907,132.905014 237.616547,132.985046 
z"/>
<path fill="#9EBDC0" opacity="1.000000" stroke="none" 
	d="
M247.293579,291.479065 
	C234.623428,291.792542 222.270966,291.856323 209.454895,291.843384 
	C206.696472,289.157867 207.981369,286.816681 210.239258,285.569641 
	C213.461197,283.790161 214.992920,281.194092 216.002075,277.573181 
	C221.015289,274.257629 226.370285,276.080963 231.470001,275.645325 
	C234.525742,275.384338 235.983215,274.689911 233.627182,271.255615 
	C231.364349,267.639709 232.375946,264.590210 234.331223,261.227356 
	C239.001953,258.719940 243.694901,259.869568 248.246918,259.608521 
	C251.373123,259.429260 254.514282,259.686157 257.984009,259.484619 
	C258.506866,259.339752 258.693756,259.257904 259.081543,258.989624 
	C260.098846,257.411346 258.518341,256.586151 258.338440,255.038971 
	C254.574890,251.162506 254.197845,247.360397 257.522339,242.956268 
	C261.546783,241.068161 265.402008,241.706314 269.635315,241.948517 
	C270.848572,242.217010 271.606903,242.570328 272.071808,243.242599 
	C274.596527,246.893387 277.000458,246.029160 279.735413,242.911285 
	C280.882904,242.429932 281.692841,242.409134 282.903595,242.742401 
	C284.327057,243.461258 284.698975,244.677841 285.682648,245.302597 
	C292.451355,249.601501 292.449493,249.604446 287.753662,255.878754 
	C284.934723,257.803284 282.191589,257.013641 279.125763,256.819824 
	C274.819366,255.725479 272.825562,256.897522 272.334625,260.729218 
	C272.085114,262.676117 272.369995,264.665131 272.235260,266.631866 
	C271.903809,271.468994 270.878113,272.432953 265.619812,272.764801 
	C264.835297,273.280243 264.436066,273.758728 263.854553,274.530212 
	C263.425110,274.896759 263.231689,275.019257 262.709961,275.248047 
	C258.895172,274.652222 255.498352,277.491699 251.731247,275.084351 
	C250.060944,274.016968 248.591049,276.455261 248.908173,278.472595 
	C249.156052,280.049530 249.927979,281.547943 249.800903,283.587952 
	C250.275818,286.741974 249.772919,289.240448 247.293579,291.479065 
z"/>
<path fill="#9AB6BB" opacity="1.000000" stroke="none" 
	d="
M287.100342,255.300385 
	C292.173859,249.197571 285.448700,247.957809 283.100281,244.710556 
	C283.492584,241.357422 286.030640,241.824142 288.009064,241.717453 
	C291.839325,241.510925 291.614075,239.887665 289.636505,237.095444 
	C286.917480,229.907333 287.121277,228.725479 291.748413,225.099228 
	C292.989594,224.381973 293.943207,223.997375 295.037903,223.326996 
	C296.705780,221.660645 298.095551,221.870422 299.636108,223.712921 
	C303.724182,226.378189 306.909637,229.296127 308.708405,233.890625 
	C310.421082,235.724808 310.017456,237.197998 308.363525,238.936325 
	C308.040558,243.234543 307.962555,247.182571 307.933167,251.591919 
	C308.350616,252.443085 308.651001,252.879974 308.947632,253.758667 
	C307.863861,257.879974 306.836945,261.632111 305.876129,265.416138 
	C304.546631,270.652100 302.263000,275.689331 295.924438,277.494446 
	C292.585205,277.142761 290.034180,275.516113 287.121552,274.833710 
	C284.078918,274.120850 282.274567,276.307281 279.588074,276.264496 
	C275.342590,276.196869 271.077423,275.829315 266.479431,276.002441 
	C264.598816,275.272125 264.625000,273.767212 264.068573,272.208069 
	C263.742432,271.769104 263.595886,271.606384 263.217987,271.210480 
	C263.335693,268.663879 264.380432,267.252319 266.437958,269.413940 
	C269.353516,272.476959 269.609894,269.903625 269.845154,267.901978 
	C270.073059,265.962616 269.890076,263.958069 269.736694,261.993927 
	C269.309204,256.520508 272.582031,253.654587 278.415405,254.940811 
	C280.838654,260.058838 283.998810,260.954956 290.824493,258.617218 
	C290.356628,256.712677 287.843109,257.286285 287.100342,255.300385 
z"/>
<path fill="#B1E2C8" opacity="1.000000" stroke="none" 
	d="
M205.636795,223.660736 
	C214.339874,225.447617 222.746063,224.119308 231.523346,224.620972 
	C234.814758,228.384125 234.151138,232.468185 230.041275,235.035324 
	C227.943115,236.345901 225.736267,237.504868 223.181976,238.863434 
	C222.236938,239.048874 221.697433,239.101074 220.773956,239.147034 
	C218.484665,239.162170 216.576141,239.056412 214.321365,239.243607 
	C211.587967,239.609085 209.035187,238.771652 206.312195,240.488190 
	C210.930389,242.992737 216.081482,240.252991 220.477448,243.119415 
	C221.857941,247.866165 220.672592,250.296158 216.387268,252.360458 
	C213.260986,253.866425 209.853165,254.441376 206.232117,255.562073 
	C205.466476,255.923889 205.007050,256.029602 204.223724,256.022034 
	C203.532501,255.982605 203.095764,255.553497 202.638153,256.396423 
	C202.340149,256.813293 202.187561,256.970337 201.732803,257.299866 
	C199.834167,257.964783 199.366119,259.446350 198.473114,260.627106 
	C195.928421,263.991730 192.706192,263.557404 190.295654,259.358521 
	C190.008118,251.553268 189.764969,244.108398 189.786209,236.664246 
	C189.804733,230.172501 193.658264,225.949417 200.825226,224.203674 
	C202.356720,222.739319 203.733597,222.480881 205.636795,223.660736 
z"/>
<path fill="#A9CEC2" opacity="1.000000" stroke="none" 
	d="
M190.053833,259.409546 
	C192.754578,261.752686 195.158859,261.544800 197.360413,258.479248 
	C198.355118,257.094177 199.613159,256.163177 201.774780,256.165283 
	C204.748199,258.892700 207.972275,259.700348 211.660843,259.626465 
	C217.320190,259.513031 222.986649,259.502533 228.646820,259.665344 
	C230.760315,259.726105 233.051620,259.414032 234.826019,261.736877 
	C234.958557,264.792786 234.073425,267.455475 234.954620,270.489807 
	C233.627365,273.746368 230.875305,273.221130 228.520248,273.324738 
	C220.461838,273.679413 212.384598,273.074219 203.890198,273.795898 
	C201.257721,273.740570 199.810455,274.996033 198.270767,276.363770 
	C196.104324,278.288300 193.684143,279.886078 190.441528,277.295959 
	C190.089691,273.957336 190.033203,270.922058 190.042770,267.435791 
	C190.668732,266.232513 190.475220,265.379669 190.268555,264.277130 
	C190.059067,262.611816 190.015167,261.216553 190.053833,259.409546 
z"/>
<path fill="#D5B59A" opacity="1.000000" stroke="none" 
	d="
M192.740112,163.501740 
	C203.035782,155.820724 214.717819,152.180450 226.707352,148.378967 
	C230.870422,145.371246 235.576172,146.098923 240.295715,145.210449 
	C241.800110,145.606155 242.923248,145.460556 244.449768,145.546356 
	C248.642731,145.643433 252.419739,145.704468 256.666565,145.721405 
	C258.835602,145.365616 260.545013,145.510071 262.610657,145.796127 
	C266.077454,146.670547 269.185974,147.311386 272.676483,148.068573 
	C274.240906,148.746109 275.446381,149.256958 276.635651,149.803467 
	C277.746033,150.313721 278.758209,150.858917 278.473511,152.288925 
	C278.185577,153.735397 277.044800,153.892105 275.439240,153.868576 
	C274.595703,153.914429 274.130981,153.889465 273.344879,153.724716 
	C271.762299,152.813202 270.313354,152.600601 268.584900,152.335144 
	C246.450272,148.944839 225.656189,152.377197 205.768723,161.662628 
	C202.184082,163.336273 198.896286,165.645676 195.132507,167.746552 
	C192.283554,167.501999 191.529221,166.171677 192.740112,163.501740 
z"/>
<path fill="#90ACB4" opacity="1.000000" stroke="none" 
	d="
M294.795166,276.051270 
	C300.832764,273.943451 302.202515,268.515350 304.406036,263.839447 
	C305.795990,260.890045 306.634094,257.680603 307.946655,254.298920 
	C310.404358,254.032135 310.776367,255.380707 310.210938,257.526794 
	C307.516907,260.044037 307.138641,266.478790 309.586182,270.937164 
	C311.363892,272.669525 311.098053,274.139008 309.352692,275.834015 
	C307.594238,277.403564 307.937592,279.151093 307.757507,280.784088 
	C307.005707,287.600861 302.740631,291.659210 295.912415,291.859589 
	C291.252533,291.996338 286.584503,291.855286 281.457642,291.761047 
	C278.361145,288.724274 279.875793,285.442780 280.365662,281.885498 
	C280.673187,280.349457 281.401062,279.403687 281.860504,278.341400 
	C283.566254,274.397125 285.649353,273.392761 289.076752,275.726501 
	C291.114197,277.113831 292.584625,277.081451 294.795166,276.051270 
z"/>
<path fill="#A6C3C3" opacity="1.000000" stroke="none" 
	d="
M291.570557,224.686111 
	C290.047791,228.393890 289.893768,232.192627 290.982330,236.508408 
	C289.984283,239.165176 287.870728,239.229965 285.917816,239.256393 
	C274.671875,239.408600 263.422241,239.786743 251.755341,238.941757 
	C249.301575,237.964706 248.172485,236.014511 249.500198,234.485672 
	C251.927643,231.690506 251.298752,228.261520 252.690109,225.010712 
	C253.495865,224.659470 253.992157,224.537033 254.832779,224.241882 
	C256.386688,222.770737 257.762024,222.535690 259.675720,223.706406 
	C270.373322,225.248550 280.751099,224.330292 291.570557,224.686111 
z"/>
<path fill="#95B1B8" opacity="1.000000" stroke="none" 
	d="
M282.281128,280.432556 
	C281.817902,284.132202 282.424744,287.609955 281.094238,291.302002 
	C269.964752,291.753021 258.934326,291.822327 247.439896,291.810211 
	C247.306671,289.133545 247.637466,286.538300 247.976593,283.549866 
	C251.608093,281.450958 253.621658,276.503265 259.020355,277.708252 
	C259.466492,277.504761 259.635376,277.408325 260.035400,277.138367 
	C260.849304,276.463989 261.395599,275.930176 261.982239,275.045471 
	C262.296570,274.683105 262.426636,274.541870 262.743286,274.181152 
	C262.941010,273.215820 262.952209,272.469971 262.975037,271.350708 
	C263.166779,270.984863 263.346954,270.992432 263.797211,271.014252 
	C265.916687,272.450256 263.781372,275.869537 267.210724,276.785461 
	C271.407166,278.640961 275.636536,276.747253 279.596802,278.110352 
	C280.851379,278.542145 282.286469,278.298279 282.281128,280.432556 
z"/>
<path fill="#A6C3C3" opacity="1.000000" stroke="none" 
	d="
M190.072479,277.414734 
	C194.994598,277.886902 197.197205,272.721680 201.746307,272.069031 
	C204.904465,274.581085 208.093842,275.909607 211.950470,275.730743 
	C213.704010,275.649445 215.633377,275.701782 216.879639,277.915375 
	C218.314575,282.770508 217.334427,285.862579 212.258636,287.026337 
	C210.466736,287.437164 209.307297,289.065674 209.027374,291.417114 
	C207.346252,291.821899 205.701263,291.924042 204.056229,291.924591 
	C194.178329,291.927734 189.984940,287.715179 190.072479,277.414734 
z"/>
<path fill="#A9CEC2" opacity="1.000000" stroke="none" 
	d="
M252.560547,224.662933 
	C255.709213,229.471848 255.109085,233.379410 250.137421,236.588898 
	C249.385666,238.213943 248.307114,238.935287 246.901474,239.034622 
	C239.323044,239.570221 231.742401,239.807571 224.177765,238.841599 
	C223.529663,238.758835 223.003494,238.264084 222.258728,237.360596 
	C227.478317,234.978424 232.279755,232.443634 231.943573,225.094849 
	C232.390152,224.579666 232.847443,224.424637 233.642059,224.132065 
	C235.625763,222.603912 237.153412,223.106812 239.028473,224.470490 
	C243.652725,224.617538 247.887115,224.580750 252.560547,224.662933 
z"/>
<path fill="#476786" opacity="1.000000" stroke="none" 
	d="
M291.674133,323.729919 
	C292.032410,329.632965 292.187805,335.291382 292.051453,340.942780 
	C291.928741,346.028870 287.885651,349.890869 283.143982,349.805023 
	C279.250977,349.734497 275.265411,345.817444 274.957916,341.759674 
	C274.577454,336.738831 277.406494,333.060547 282.803131,332.902893 
	C288.593567,332.733765 286.493622,328.658356 287.110046,325.367981 
	C288.232025,323.491730 289.441711,322.487976 291.674133,323.729919 
z"/>
<path fill="#EAC5A5" opacity="1.000000" stroke="none" 
	d="
M255.160568,178.301636 
	C247.409180,178.636871 242.583633,175.518631 242.469437,170.040924 
	C242.359161,164.751678 245.777237,160.921570 250.744431,160.768387 
	C255.759796,160.613739 260.249146,164.818420 260.295410,170.043121 
	C260.345398,175.683167 260.096649,181.325882 259.911255,187.421631 
	C256.952026,187.927200 257.075165,185.819427 257.010437,183.880371 
	C256.946503,181.965103 257.311401,179.938690 255.160568,178.301636 
z"/>
<path fill="#D4BAA4" opacity="1.000000" stroke="none" 
	d="
M150.668930,238.265182 
	C147.931641,233.889359 148.997787,230.523117 152.913300,228.273087 
	C156.716415,226.087692 159.761154,227.639404 161.422882,231.396515 
	C162.506271,233.846039 164.408142,233.748886 166.353363,233.775208 
	C171.176514,233.840454 176.001251,233.794708 180.825333,233.781921 
	C182.839005,233.776581 184.659119,234.224411 184.531204,236.678940 
	C184.420731,238.798538 182.743042,239.177933 180.910751,239.159698 
	C176.419662,239.115036 171.927673,239.082794 167.436768,239.124863 
	C164.013168,239.156952 160.616013,238.557098 157.240891,240.316132 
	C155.101105,241.431335 152.700500,240.358490 150.668930,238.265182 
z"/>
<path fill="#A9CEC2" opacity="1.000000" stroke="none" 
	d="
M175.401581,288.290894 
	C174.937927,279.948944 174.520401,271.865265 174.855026,263.812897 
	C175.052719,259.056091 173.727844,257.078125 168.907318,257.920654 
	C167.948608,258.088226 166.933990,257.935883 165.496887,257.877747 
	C164.331528,257.213348 163.639328,256.580292 163.121033,255.378021 
	C163.039505,253.980530 163.550613,253.236511 164.721832,252.510834 
	C169.969284,252.246765 174.923019,252.203949 179.875748,252.108948 
	C181.948349,252.069199 184.086853,252.044113 184.390991,254.724289 
	C184.649734,257.004333 183.212387,257.885681 181.041748,258.013855 
	C178.303741,258.175537 179.301727,260.403687 179.287674,261.802673 
	C179.203033,270.227295 179.255203,278.653259 179.162689,287.538483 
	C178.108383,289.031677 176.987213,289.095764 175.401581,288.290894 
z"/>
<path fill="#EAC5A5" opacity="1.000000" stroke="none" 
	d="
M176.596771,193.242065 
	C180.369629,192.075882 183.128922,193.376816 184.874588,196.212769 
	C186.243744,198.437073 188.037399,198.700027 190.576675,198.707306 
	C193.078674,202.214722 192.816757,202.595093 187.318726,203.684845 
	C186.952835,203.827606 186.786240,203.950775 186.694336,203.902939 
	C186.237244,204.423706 185.747559,204.901642 185.215103,205.766357 
	C180.135727,211.413147 176.306671,211.289536 171.041489,205.252502 
	C168.998718,199.356506 173.601959,196.853577 176.596771,193.242065 
z"/>
<path fill="#5C7390" opacity="1.000000" stroke="none" 
	d="
M233.759003,328.745514 
	C240.678192,331.039398 247.435562,329.295380 254.526611,329.973022 
	C256.614044,332.169342 255.152023,333.358887 253.292725,334.788849 
	C249.370087,335.114594 245.731491,335.214172 242.093307,335.200867 
	C237.979568,335.185852 234.322098,335.103088 231.012497,338.911316 
	C227.573700,342.868225 222.122192,341.413483 218.299225,336.297852 
	C222.322083,331.566772 226.441162,327.191040 233.759003,328.745514 
z"/>
<path fill="#C1D5C8" opacity="1.000000" stroke="none" 
	d="
M192.625107,163.217987 
	C192.914047,164.726761 192.959152,166.266068 194.571259,167.596039 
	C185.586334,173.991058 178.401016,182.270065 171.044891,190.382767 
	C169.919632,191.623749 168.970810,193.587875 166.362564,192.548248 
	C166.483292,190.369934 166.572235,188.375473 167.705902,186.218903 
	C167.870590,185.831268 167.900650,185.904922 167.862534,185.893555 
	C169.487396,184.718384 170.861572,183.309509 171.778595,181.091309 
	C177.907715,174.018600 184.407745,167.843689 192.625107,163.217987 
z"/>
<path fill="#8B9AA6" opacity="1.000000" stroke="none" 
	d="
M299.983826,223.562195 
	C298.556885,223.710526 297.212799,223.397827 295.523834,223.063171 
	C295.122498,218.728119 294.847595,214.404236 295.060120,210.104446 
	C295.389740,203.434204 299.886658,199.334396 306.555664,198.683060 
	C309.661926,198.379715 313.319153,200.017334 316.026306,196.326141 
	C319.104828,195.221008 319.200287,197.252808 319.189270,199.016113 
	C319.174866,201.331879 317.860718,202.965225 315.387085,204.105164 
	C301.405884,203.224091 300.202362,204.316971 300.130951,217.615341 
	C300.121124,219.444031 300.088684,221.272568 299.983826,223.562195 
z"/>
<path fill="#B8B0A7" opacity="1.000000" stroke="none" 
	d="
M164.663620,252.216248 
	C164.740555,253.062012 164.465134,253.813385 164.060822,254.837540 
	C160.449402,261.844879 153.930649,262.789001 146.359024,257.301788 
	C144.755997,251.931168 146.897873,248.485840 151.433746,246.617523 
	C155.888397,244.782654 159.531647,246.304199 162.179031,250.266052 
	C162.725204,251.083389 163.095261,252.082733 164.663620,252.216248 
z"/>
<path fill="#9EBDC0" opacity="1.000000" stroke="none" 
	d="
M174.934479,288.473022 
	C176.112473,288.010162 177.185669,288.000885 178.661346,287.994904 
	C179.225739,290.979553 179.331253,293.965332 179.560745,296.941498 
	C180.130783,304.333588 183.835220,307.870178 191.561127,308.139954 
	C193.695145,309.385315 195.870102,310.327362 194.255890,313.371429 
	C181.341675,314.375183 174.876007,308.414093 174.765564,295.912476 
	C174.744995,293.584229 174.806229,291.255280 174.934479,288.473022 
z"/>
<path fill="#6D7F98" opacity="1.000000" stroke="none" 
	d="
M234.094177,328.473480 
	C228.642441,330.268768 224.509750,334.623413 218.585312,335.959045 
	C215.789825,330.566467 217.133743,325.139160 221.395050,323.115784 
	C226.232040,320.819031 231.049866,322.725525 234.094177,328.473480 
z"/>
<path fill="#476786" opacity="1.000000" stroke="none" 
	d="
M253.472931,335.122925 
	C253.626495,333.602936 254.244476,332.141022 254.927917,330.344604 
	C257.605255,329.952545 260.226288,329.729187 262.827087,329.872528 
	C268.044312,330.160156 270.853790,327.842865 271.378876,322.239319 
	C272.711334,320.282196 274.155304,320.216827 276.013977,321.520508 
	C277.305145,329.380310 272.420074,335.139099 264.891724,335.202209 
	C261.240570,335.232819 257.588837,335.190399 253.472931,335.122925 
z"/>
<path fill="#476786" opacity="1.000000" stroke="none" 
	d="
M345.561584,283.882141 
	C341.928894,284.167114 339.062775,283.431793 338.100708,279.941711 
	C337.312225,277.081421 337.789948,274.323822 340.469635,272.412598 
	C343.523193,270.234711 347.731628,270.901611 349.698395,273.870270 
	C352.091187,277.482025 350.652466,281.299347 345.561584,283.882141 
z"/>
<path fill="#5C7390" opacity="1.000000" stroke="none" 
	d="
M335.617676,252.660690 
	C337.819275,252.083481 338.547668,250.513824 339.638184,249.319214 
	C343.597321,244.982254 347.784851,244.835953 352.706543,248.969971 
	C353.181183,249.278824 353.344696,249.393997 353.690582,249.747437 
	C353.957092,250.137268 354.041229,250.288818 354.221313,250.681992 
	C354.049133,251.690598 353.887634,252.871841 353.212708,253.015732 
	C347.788422,254.172119 345.623291,258.389343 343.318115,262.990723 
	C339.912018,262.537201 338.909973,259.451874 336.373688,257.748840 
	C335.211456,256.186554 334.305054,254.773361 335.617676,252.660690 
z"/>
<path fill="#90ACB4" opacity="1.000000" stroke="none" 
	d="
M235.316498,313.351013 
	C227.584839,313.654388 220.250061,313.710968 212.453445,313.681763 
	C210.252548,312.213074 210.148697,310.608856 211.669556,308.510071 
	C219.832794,308.174988 227.672836,308.158325 235.949631,308.188538 
	C237.728455,310.074860 237.512711,311.698975 235.316498,313.351013 
z"/>
<path fill="#476786" opacity="1.000000" stroke="none" 
	d="
M332.171082,291.564545 
	C332.145721,298.125671 334.164886,303.178894 339.576263,306.708374 
	C341.100983,307.702850 341.657898,309.559143 340.432098,311.078033 
	C339.013397,312.835999 337.105927,312.391113 335.590302,311.045837 
	C330.148682,306.215729 325.113617,301.153015 327.233276,292.386353 
	C328.636993,290.373077 330.165039,290.123627 332.171082,291.564545 
z"/>
<path fill="#476786" opacity="1.000000" stroke="none" 
	d="
M343.285309,263.357666 
	C343.143311,253.977402 343.323425,253.774368 353.931580,251.070526 
	C356.606140,254.035889 356.207977,257.284241 354.050354,260.054352 
	C351.466156,263.372162 347.946960,264.974762 343.285309,263.357666 
z"/>
<path fill="#6D7F98" opacity="1.000000" stroke="none" 
	d="
M276.356873,321.383698 
	C274.906555,321.857330 273.543121,321.881165 271.836273,321.876648 
	C271.406921,315.869293 271.279694,309.890411 271.259613,303.911102 
	C271.253448,302.071350 271.374481,299.933472 273.937561,299.957092 
	C276.528656,299.980957 276.525208,302.219879 276.541870,303.991577 
	C276.594910,309.638214 276.488525,315.286316 276.356873,321.383698 
z"/>
<path fill="#6D7F98" opacity="1.000000" stroke="none" 
	d="
M327.508362,195.366547 
	C331.983856,197.934204 332.878784,201.391205 330.527252,205.470871 
	C328.099152,209.683380 323.213837,211.351501 319.133698,209.210266 
	C318.015778,208.623566 317.153259,207.550125 316.036987,206.368530 
	C317.677521,203.077011 320.205383,200.685944 322.081787,197.767578 
	C323.043457,196.271896 324.759827,194.691086 327.508362,195.366547 
z"/>
<path fill="#7890A5" opacity="1.000000" stroke="none" 
	d="
M235.342926,313.699158 
	C235.348892,312.073212 235.778168,310.548553 236.296906,308.629669 
	C241.450027,308.172913 245.436737,306.463623 247.000244,301.172455 
	C247.680008,298.872009 249.493378,299.197754 251.026794,299.582489 
	C253.179779,300.122681 252.371185,301.921631 252.079422,303.286163 
	C250.579758,310.299835 244.884064,313.943939 235.342926,313.699158 
z"/>
<path fill="#D4BAA4" opacity="1.000000" stroke="none" 
	d="
M214.766113,186.035599 
	C220.081451,189.387802 222.525787,195.582153 228.610992,198.373383 
	C230.404251,199.576706 232.115540,200.092545 234.114990,200.753510 
	C234.444748,200.808243 234.782776,200.911133 234.882706,201.056824 
	C236.458618,203.814301 235.353104,205.011520 232.288452,205.215424 
	C231.575516,205.035904 231.315811,204.918381 230.994385,204.523712 
	C230.608871,203.444458 229.750687,203.516998 228.716995,203.236969 
	C225.386276,203.872635 223.483795,201.940369 221.662170,200.236343 
	C218.384598,197.170319 215.311447,193.885757 212.023987,190.381927 
	C212.060379,188.321457 213.043976,187.104919 214.766113,186.035599 
z"/>
<path fill="#5C7390" opacity="1.000000" stroke="none" 
	d="
M332.522217,291.459839 
	C330.976807,291.923157 329.513062,291.943268 327.680298,291.948792 
	C327.238861,289.173492 327.061340,286.410461 327.120483,283.652557 
	C327.195068,280.175934 325.998901,277.639557 322.223846,276.321716 
	C321.011658,274.550812 320.917969,273.046509 322.673096,271.419495 
	C329.175537,272.935974 332.208374,276.426147 332.631897,282.617737 
	C332.822449,285.403717 332.625153,288.216217 332.522217,291.459839 
z"/>
<path fill="#5C7390" opacity="1.000000" stroke="none" 
	d="
M292.053650,323.513428 
	C290.622406,324.249481 289.240784,324.521362 287.515900,324.861084 
	C287.115051,317.976044 287.041168,311.023285 287.011047,304.070343 
	C287.003235,302.261688 286.797455,300.027679 289.357605,299.909790 
	C292.292175,299.774658 292.118530,302.209259 292.128662,304.174652 
	C292.161041,310.465973 292.117523,316.757690 292.053650,323.513428 
z"/>
<path fill="#A7A6A6" opacity="1.000000" stroke="none" 
	d="
M260.067871,223.521408 
	C258.688354,224.010849 257.337860,224.033340 255.582230,224.062500 
	C255.132874,216.668381 255.088638,209.267609 255.128754,201.400787 
	C256.738708,199.564468 258.167328,199.584747 259.691498,201.593628 
	C259.966003,208.987915 260.031433,216.021179 260.067871,223.521408 
z"/>
<path fill="#B8B0A7" opacity="1.000000" stroke="none" 
	d="
M232.000244,205.435791 
	C233.248779,204.345184 234.667465,203.662735 234.929413,201.526825 
	C237.976547,203.412537 239.167282,206.369598 239.073975,210.083069 
	C238.959183,214.651245 239.139938,219.226822 239.305634,224.226776 
	C237.864578,224.484909 236.310852,224.315491 234.368256,224.070297 
	C233.204742,217.946762 235.570633,211.579163 232.000244,205.435791 
z"/>
<path fill="#95B1B8" opacity="1.000000" stroke="none" 
	d="
M211.528793,308.126587 
	C211.990707,309.736298 211.988647,311.280945 211.989105,313.210785 
	C206.293243,313.669312 200.594864,313.742706 194.433731,313.730255 
	C194.031418,311.789703 192.777985,310.427582 192.074402,308.513245 
	C198.344666,308.154449 204.704758,308.107971 211.528793,308.126587 
z"/>
<path fill="#D4BAA4" opacity="1.000000" stroke="none" 
	d="
M259.951538,201.495331 
	C258.569183,201.623627 257.237793,201.292587 255.559723,200.948151 
	C255.132629,193.615631 255.052185,186.296494 254.918762,178.514404 
	C257.678284,177.808563 259.065186,179.017563 259.065643,181.921249 
	C259.065887,183.673401 259.355286,185.425507 259.679535,187.526733 
	C259.897064,192.262558 259.949768,196.649277 259.951538,201.495331 
z"/>
<path fill="#A7A6A6" opacity="1.000000" stroke="none" 
	d="
M288.656555,153.960938 
	C295.759705,154.952194 301.478668,158.107864 306.890015,162.559357 
	C307.638672,164.926254 307.112061,166.273315 304.366089,166.205414 
	C298.682892,162.795334 293.206665,159.952774 287.068695,157.689911 
	C286.131104,155.877167 286.862579,154.833923 288.656555,153.960938 
z"/>
<path fill="#D5B59A" opacity="1.000000" stroke="none" 
	d="
M187.403534,203.891342 
	C188.518021,202.519608 191.715500,202.736893 191.019775,199.102066 
	C199.891388,197.922760 204.369873,200.747787 206.003204,208.745422 
	C204.349396,210.413040 202.853165,210.461777 201.200867,208.488342 
	C198.023087,202.238327 192.525894,204.378845 187.403534,203.891342 
z"/>
<path fill="#7890A5" opacity="1.000000" stroke="none" 
	d="
M327.866150,194.907745 
	C325.618011,197.591644 323.211273,199.807343 321.735596,202.814911 
	C320.728607,204.867279 319.103607,206.127258 316.285187,206.023682 
	C315.606842,205.597092 315.313232,205.157196 314.981262,204.450027 
	C314.561890,201.330933 318.716461,199.539154 316.535583,196.179504 
	C320.397156,191.847549 323.129761,191.502243 327.866150,194.907745 
z"/>
<path fill="#7890A5" opacity="1.000000" stroke="none" 
	d="
M336.283997,238.575226 
	C329.618774,238.972504 323.252869,239.020447 316.423370,238.979095 
	C314.635925,237.336304 314.823639,235.922226 316.658264,234.357727 
	C322.995972,234.037170 329.027893,233.990723 335.524902,233.997437 
	C337.187653,235.300262 337.500702,236.675644 336.283997,238.575226 
z"/>
<path fill="#7890A5" opacity="1.000000" stroke="none" 
	d="
M310.422302,257.910095 
	C309.493744,256.712189 309.028656,255.589172 308.368530,254.238098 
	C308.109772,253.576416 308.045990,253.142776 307.982025,252.381195 
	C313.325378,252.139282 318.668884,252.225342 324.471100,252.375122 
	C326.730652,253.789856 326.798004,255.392212 325.290741,257.491364 
	C320.271881,257.866394 315.578827,257.925690 310.422302,257.910095 
z"/>
<path fill="#A7A6A6" opacity="1.000000" stroke="none" 
	d="
M146.020721,257.358368 
	C151.969330,258.027863 157.959839,260.018341 163.673950,255.332504 
	C164.277390,255.814377 164.622864,256.518402 165.008484,257.523438 
	C163.513763,257.867737 162.981064,259.065765 162.159256,260.098785 
	C157.032349,266.543091 149.334885,265.382538 146.020721,257.358368 
z"/>
<path fill="#8B9AA6" opacity="1.000000" stroke="none" 
	d="
M304.170227,166.268829 
	C305.338654,165.603577 306.173248,164.658295 306.910400,163.153290 
	C312.255737,164.221313 315.592926,168.351151 319.864349,171.636597 
	C320.441711,174.535233 319.301147,175.688141 316.316223,175.231262 
	C312.079132,172.197708 308.215240,169.374634 304.170227,166.268829 
z"/>
<path fill="#C1D5C8" opacity="1.000000" stroke="none" 
	d="
M200.950119,208.613342 
	C202.349167,208.454254 203.774399,208.745850 205.566528,209.084442 
	C205.980148,213.763672 206.026840,218.395935 206.035309,223.486572 
	C204.642258,223.956818 203.287430,223.968658 201.526489,223.977493 
	C201.072357,219.004333 201.024323,214.034164 200.950119,208.613342 
z"/>
<path fill="#B8B0A7" opacity="1.000000" stroke="none" 
	d="
M288.897552,153.540329 
	C288.442291,154.872635 287.821686,155.895065 286.989258,157.213989 
	C286.777466,157.510483 286.375885,157.448349 286.221619,157.316101 
	C285.383057,156.143967 284.229767,156.679245 282.968506,156.262512 
	C280.305115,155.518860 278.001617,154.881088 275.379242,154.091354 
	C280.356232,150.375916 273.802765,150.488571 273.244171,148.434357 
	C278.570007,148.975296 283.712280,150.912842 288.897552,153.540329 
z"/>
<path fill="#6D7F98" opacity="1.000000" stroke="none" 
	d="
M316.086426,175.324371 
	C317.589386,174.763535 318.811584,173.880295 319.864136,172.200775 
	C323.284698,175.044601 326.527557,178.172073 329.923523,181.594543 
	C330.193787,184.428543 328.674500,185.008240 326.088318,184.745987 
	C325.640533,184.645401 325.450470,184.566528 325.473633,184.466278 
	C325.614838,183.369476 324.785400,182.971054 323.963989,182.263916 
	C321.196411,179.969116 318.713104,177.798553 316.086426,175.324371 
z"/>
<path fill="#D4BAA4" opacity="1.000000" stroke="none" 
	d="
M210.135040,189.414642 
	C206.500748,191.060104 203.781219,190.281097 202.066788,186.842545 
	C200.807953,184.317719 200.991959,181.830200 203.227921,180.062469 
	C206.024200,177.851761 209.017975,177.958878 211.900162,180.668976 
	C209.210434,183.240234 210.222046,186.272095 210.135040,189.414642 
z"/>
<path fill="#5C7390" opacity="1.000000" stroke="none" 
	d="
M325.786987,184.918839 
	C326.947144,183.897842 328.253723,183.150269 329.818481,182.146118 
	C332.465118,183.537827 333.878540,186.043991 335.630798,188.246552 
	C336.652222,189.530548 337.079224,191.023117 335.662872,192.256348 
	C334.137451,193.584534 332.435791,193.178635 331.217987,191.815994 
	C329.338745,189.713257 327.683594,187.410294 325.786987,184.918839 
z"/>
<path fill="#6D7F98" opacity="1.000000" stroke="none" 
	d="
M325.406311,257.877441 
	C324.958466,256.272278 324.951996,254.737427 324.937653,252.820709 
	C328.303375,252.355133 331.676941,252.271439 335.504456,252.244171 
	C335.997589,253.763016 336.036835,255.225403 336.090454,257.144958 
	C332.685760,257.717316 329.266693,257.832520 325.406311,257.877441 
z"/>
<path fill="#6D7F98" opacity="1.000000" stroke="none" 
	d="
M336.441833,238.995148 
	C335.994568,237.570602 336.004456,236.216675 336.002167,234.456665 
	C339.269592,234.012726 342.549255,233.941757 345.828735,233.951416 
	C347.396332,233.956039 348.949310,234.358887 349.046661,236.243301 
	C349.157745,238.393188 347.533173,238.982178 345.761200,239.028885 
	C342.808838,239.106720 339.853210,239.059998 336.441833,238.995148 
z"/>
<path fill="#EAC5A5" opacity="1.000000" stroke="none" 
	d="
M210.298279,189.749969 
	C204.692520,189.245010 208.283859,184.391357 206.448441,182.013611 
	C206.011887,181.448059 209.509064,181.270218 211.607147,181.006226 
	C211.994720,181.003662 212.000000,181.000031 211.997894,181.002838 
	C212.735275,181.706924 212.383362,182.676697 212.852036,183.731750 
	C213.388565,184.089874 213.623474,184.290543 213.904938,184.770157 
	C214.249512,185.207947 214.474930,185.448853 214.902954,185.823822 
	C215.118179,185.946106 215.063629,185.962723 215.075714,185.936920 
	C214.782867,187.634689 216.902863,190.863556 212.205734,190.062469 
	C211.471146,189.973679 211.047226,189.876007 210.298279,189.749969 
z"/>
<path fill="#C1D5C8" opacity="1.000000" stroke="none" 
	d="
M176.555939,192.921478 
	C176.480804,197.538620 172.401230,200.165741 171.037445,204.575546 
	C167.770111,199.577698 169.610062,195.341187 176.555939,192.921478 
z"/>
<path fill="#6D7F98" opacity="1.000000" stroke="none" 
	d="
M322.533875,271.061707 
	C322.723663,272.580505 322.476807,274.022308 322.076721,275.801270 
	C319.905334,276.167542 317.887146,276.196594 315.443024,276.139313 
	C313.846252,274.745361 313.458618,273.328949 314.711395,271.354462 
	C317.370270,270.983673 319.733734,270.984161 322.533875,271.061707 
z"/>
<path fill="#90ACB4" opacity="1.000000" stroke="none" 
	d="
M316.524780,234.027588 
	C316.649719,235.451828 316.335388,236.820053 315.990417,238.539032 
	C313.634583,238.988846 311.309387,239.087891 308.551392,239.236725 
	C308.388031,237.806274 308.657501,236.326050 308.957642,234.471039 
	C311.354004,234.054718 313.719757,234.013153 316.524780,234.027588 
z"/>
<path fill="#7890A5" opacity="1.000000" stroke="none" 
	d="
M314.589233,270.920685 
	C315.010895,272.391296 315.015015,273.799408 315.018097,275.630249 
	C313.316223,276.127411 311.615417,276.201813 309.493286,276.214050 
	C309.352600,274.703766 309.633179,273.255646 309.944763,271.440033 
	C311.374420,271.001099 312.773071,270.929657 314.589233,270.920685 
z"/>
<path fill="#A9CEC2" opacity="1.000000" stroke="none" 
	d="
M167.604507,185.918640 
	C167.946609,187.881348 168.290649,189.982498 166.416870,192.004730 
	C163.959793,190.856735 165.188995,189.226608 165.901459,187.306732 
	C166.443542,186.655502 166.890976,186.330750 167.604507,185.918640 
z"/>
<path fill="#B8B0A7" opacity="1.000000" stroke="none" 
	d="
M234.263809,200.503952 
	C232.474121,200.961761 230.478119,201.193588 229.095673,198.798050 
	C230.999496,198.066635 232.603653,198.947266 234.263809,200.503952 
z"/>
<path fill="#B8B0A7" opacity="1.000000" stroke="none" 
	d="
M268.544067,152.657135 
	C269.756378,152.123520 271.257874,151.863281 272.802917,153.296600 
	C271.630005,153.340729 270.236542,153.096527 268.544067,152.657135 
z"/>
<path fill="#22363F" opacity="1.000000" stroke="none" 
	d="
M262.683563,145.839447 
	C261.292084,145.982437 259.615234,145.935150 257.537415,145.782593 
	C258.885864,144.829987 260.639923,144.839722 262.683563,145.839447 
z"/>
<path fill="#22363F" opacity="1.000000" stroke="none" 
	d="
M244.655914,145.447968 
	C243.842224,145.705322 242.818726,145.828247 241.407669,145.901520 
	C240.905823,145.709839 240.791534,145.567856 240.873032,145.235046 
	C241.500366,145.015259 241.931946,144.986313 242.685745,144.917419 
	C243.487350,145.022858 243.966721,145.168213 244.655914,145.447968 
z"/>
<path fill="#5C7390" opacity="1.000000" stroke="none" 
	d="
M323.780090,182.421829 
	C324.582214,182.320496 325.349609,182.660995 325.511047,184.033463 
	C324.957977,183.811996 324.419189,183.257996 323.780090,182.421829 
z"/>
<path fill="#A6C3C3" opacity="1.000000" stroke="none" 
	d="
M190.030060,264.375885 
	C190.683350,264.789612 190.901718,265.616119 190.259155,266.756897 
	C190.058273,266.238098 190.007706,265.491364 190.030060,264.375885 
z"/>
<path fill="#A7A6A6" opacity="1.000000" stroke="none" 
	d="
M282.876709,156.418060 
	C283.561646,156.353241 284.514679,156.549850 285.767517,156.965164 
	C285.093201,157.015747 284.118988,156.847626 282.876709,156.418060 
z"/>
<path fill="#D4BAA4" opacity="1.000000" stroke="none" 
	d="
M213.097473,183.624222 
	C212.733963,183.192139 212.374313,182.424805 212.005249,181.331558 
	C212.953812,181.481339 212.986694,182.404938 213.097473,183.624222 
z"/>
<path fill="#D5B59A" opacity="1.000000" stroke="none" 
	d="
M185.265045,205.910370 
	C185.375229,205.392746 185.731064,204.743759 186.344666,203.974930 
	C186.238525,204.496399 185.874603,205.137695 185.265045,205.910370 
z"/>
<path fill="#B8B0A7" opacity="1.000000" stroke="none" 
	d="
M228.601608,203.463409 
	C229.025208,203.417236 229.708206,203.616272 230.642670,204.073471 
	C230.216431,204.123978 229.538727,203.916306 228.601608,203.463409 
z"/>
<path fill="#D4BAA4" opacity="1.000000" stroke="none" 
	d="
M215.031830,185.689621 
	C214.809158,185.812225 214.540710,185.621323 214.162155,185.176086 
	C214.322830,185.130249 214.634171,185.281693 215.031830,185.689621 
z"/>
<path fill="#476786" opacity="1.000000" stroke="none" 
	d="
M353.803680,249.783020 
	C353.650879,249.838425 353.450165,249.666275 353.144196,249.316467 
	C353.328583,249.178680 353.567535,249.317566 353.803680,249.783020 
z"/>
<path fill="#1A2B36" opacity="1.000000" stroke="none" 
	d="
M240.756836,144.856949 
	C241.068802,145.044205 241.040298,145.447830 241.030212,145.649841 
	C236.615021,146.608154 232.209930,147.364471 227.391754,148.127609 
	C230.666824,143.867981 235.773743,145.115723 240.756836,144.856949 
z"/>
<path fill="#A9CEC2" opacity="1.000000" stroke="none" 
	d="
M171.617813,180.932068 
	C171.957779,183.241135 171.125183,185.101303 168.182724,185.827454 
	C168.405319,183.856598 170.071457,182.618347 171.617813,180.932068 
z"/>
<path fill="#1C2E39" opacity="1.000000" stroke="none" 
	d="
M221.662720,236.982422 
	C231.018784,236.957855 240.043320,236.995514 249.531403,236.961853 
	C263.349945,236.937607 276.704926,236.984695 290.524292,236.970825 
	C293.675415,237.244568 296.018768,238.311768 295.662811,241.396240 
	C295.309479,244.458450 292.603638,244.239105 290.276611,244.220276 
	C288.148926,244.203033 286.020935,244.230728 283.440491,244.324310 
	C282.243866,244.355820 281.499847,244.301636 280.388367,244.322464 
	C277.365540,245.928024 274.615509,245.762268 271.401947,244.628922 
	C266.955139,244.344543 262.930511,244.285965 258.449188,244.312164 
	C253.925034,247.427628 249.326065,246.214859 244.371445,246.015335 
	C238.248627,246.442963 232.601883,246.531250 226.952972,246.360596 
	C224.813324,246.295975 222.588501,246.452240 220.365479,244.657043 
	C215.335922,244.324463 210.714966,244.191452 206.095016,244.220306 
	C203.632812,244.235672 201.519211,243.383835 201.413864,240.910461 
	C201.293091,238.075165 203.591278,237.138931 206.179031,237.109726 
	C208.491028,237.083618 210.803223,237.075409 213.562988,236.994263 
	C215.690018,236.129242 217.462540,236.617172 219.594299,236.737793 
	C220.439301,236.962418 220.885223,237.003525 221.662720,236.982422 
z"/>
<path fill="#22363F" opacity="1.000000" stroke="none" 
	d="
M235.444489,262.051483 
	C225.572632,262.070343 216.166199,262.010040 206.759674,261.964600 
	C203.321442,261.947968 200.647339,261.260254 202.078796,256.496033 
	C202.146729,256.167938 202.094193,256.153961 202.116760,256.165283 
	C202.208267,255.885574 202.277176,255.594559 202.762482,255.470490 
	C203.590500,255.521805 204.002136,255.406158 204.708633,255.158768 
	C209.814316,253.485428 214.804123,252.935867 219.799149,252.647507 
	C224.545197,252.373535 229.312927,252.624191 234.554138,252.680969 
	C240.445297,253.609573 245.819305,252.030777 251.233353,252.578491 
	C253.996002,252.857986 256.870117,252.488007 259.639557,254.675201 
	C263.518921,255.816330 263.385132,258.188782 262.288879,261.190186 
	C262.463226,262.048126 262.328369,262.353455 261.325684,262.239258 
	C252.634750,262.031433 244.272293,262.004822 235.444489,262.051483 
z"/>
<path fill="#1A2B36" opacity="1.000000" stroke="none" 
	d="
M217.452652,278.212830 
	C213.498917,278.224487 210.008667,278.172394 206.519058,278.091248 
	C203.125381,278.012360 200.999023,276.787903 202.021286,272.467041 
	C204.844681,270.333832 207.889694,271.081146 210.799408,271.040344 
	C218.549454,270.931702 226.301804,270.987854 234.516327,270.914612 
	C237.301468,271.357941 239.952133,271.885895 239.635406,274.938629 
	C239.283707,278.328369 236.365601,278.093109 233.847336,278.098999 
	C228.537033,278.111420 223.226715,278.123871 217.452652,278.212830 
z"/>
<path fill="#A6C3C3" opacity="1.000000" stroke="none" 
	d="
M259.958313,254.655090 
	C251.972366,255.075012 243.943985,255.137741 235.454681,255.106079 
	C233.371231,252.900223 234.396744,251.363052 236.073303,249.945679 
	C238.352173,248.019089 240.946243,246.545471 243.679657,244.625214 
	C248.350311,244.358871 252.712982,244.297180 257.534088,244.316223 
	C256.301361,248.150345 258.373047,251.172760 259.958313,254.655090 
z"/>
<path fill="#22363F" opacity="1.000000" stroke="none" 
	d="
M286.599701,255.040863 
	C288.637482,255.041168 290.279327,255.100616 291.918579,255.202011 
	C294.016052,255.331741 295.469330,256.522156 295.605011,258.517212 
	C295.750336,260.654144 294.141083,261.829376 292.144958,261.887665 
	C288.031128,262.007843 283.886475,262.159454 279.799591,261.793945 
	C276.058563,261.459412 275.604797,259.243622 278.447388,255.434113 
	C281.168671,255.175888 283.685638,255.147247 286.599701,255.040863 
z"/>
<path fill="#22363F" opacity="1.000000" stroke="none" 
	d="
M261.636108,278.821960 
	C259.538849,283.271667 257.559601,279.467682 255.272400,278.787079 
	C255.378006,283.594849 252.092957,283.318176 248.405533,283.113342 
	C247.617126,281.054077 247.075150,278.963409 246.930756,276.845612 
	C246.787582,274.745941 248.113464,273.040863 250.117691,273.198730 
	C253.830322,273.491211 257.518097,274.022186 261.576233,273.917419 
	C262.251587,274.214569 262.534271,274.468292 262.812866,275.087097 
	C262.985199,276.188904 262.721344,276.853760 261.918579,277.603210 
	C261.319427,278.972778 260.232056,278.244781 259.578033,278.608490 
	C260.149597,278.460602 260.791168,278.513458 261.636108,278.821960 
z"/>
<path fill="#9AB6BB" opacity="1.000000" stroke="none" 
	d="
M271.114258,244.721375 
	C273.696533,244.343262 276.413239,244.283371 279.575470,244.310486 
	C277.363495,248.253693 274.399414,247.921341 271.114258,244.721375 
z"/>
<path fill="#9AB6BB" opacity="1.000000" stroke="none" 
	d="
M261.105774,262.316162 
	C261.181274,261.850281 261.402985,261.696869 261.860596,261.551208 
	C262.585602,262.004852 263.548004,262.505463 262.657440,263.291138 
	C262.103394,263.779938 261.549286,263.136658 261.105774,262.316162 
z"/>
<path fill="#9AB6BB" opacity="1.000000" stroke="none" 
	d="
M262.900787,275.017883 
	C262.606262,275.115051 262.329620,274.860382 261.973938,274.324493 
	C262.067841,274.030701 262.240753,274.018127 262.671753,273.983643 
	C262.926117,274.196472 262.922394,274.431274 262.900787,275.017883 
z"/>
<path fill="#22363F" opacity="1.000000" stroke="none" 
	d="
M282.502747,280.716888 
	C279.010925,280.424286 275.669769,279.268768 272.858582,280.041473 
	C270.185547,280.776184 268.501007,280.640137 266.320740,278.875305 
	C265.010254,277.963257 264.999054,276.890015 265.686157,275.421814 
	C268.349640,273.498993 270.472931,273.582336 273.505524,274.047485 
	C276.136597,274.451050 279.818726,273.997955 282.967560,273.843292 
	C286.865784,273.651794 291.358612,271.175842 294.953827,275.672791 
	C294.108093,277.407043 296.660095,280.524078 292.639801,280.643188 
	C289.793396,280.727509 287.628113,280.809570 288.172333,277.033264 
	C288.334381,275.908936 287.475677,275.665344 286.650696,275.645996 
	C285.461273,275.618103 284.409546,275.875519 284.043396,277.303528 
	C283.747437,278.457794 284.580353,280.020020 282.502747,280.716888 
z"/>
<path fill="#1C2E39" opacity="1.000000" stroke="none" 
	d="
M265.988342,274.706787 
	C265.956146,276.106354 265.946991,277.112152 265.947540,278.494934 
	C265.744873,279.418793 265.663269,280.306641 265.295288,280.447754 
	C264.247528,280.849548 263.919952,279.997101 263.908630,279.147858 
	C263.876465,276.734802 263.909912,274.320892 263.992432,271.467896 
	C266.799835,270.889526 265.830811,272.941437 265.988342,274.706787 
z"/>
<path fill="#A9CEC2" opacity="1.000000" stroke="none" 
	d="
M243.525818,244.342682 
	C243.842834,247.477936 241.566162,248.873627 239.406326,250.412308 
	C237.833466,251.532791 235.851791,252.254791 235.085052,254.682098 
	C225.301407,255.092224 215.609024,255.172760 205.460068,255.140167 
	C205.135345,252.920120 206.161285,252.474289 208.286133,252.496063 
	C213.636475,252.550873 217.702408,250.170959 219.916656,244.725159 
	C227.658966,244.348358 235.361481,244.306580 243.525818,244.342682 
z"/>
<path fill="#A9CEC2" opacity="1.000000" stroke="none" 
	d="
M219.686829,236.751160 
	C218.280319,236.976547 216.567291,237.031769 214.432434,237.008118 
	C215.740753,235.891235 217.534180,235.829727 219.686829,236.751160 
z"/>
<path fill="#A9CEC2" opacity="1.000000" stroke="none" 
	d="
M203.059082,255.512573 
	C203.027039,255.878235 202.814056,256.036865 202.339630,256.145020 
	C202.202988,255.707779 202.285187,255.257767 203.059082,255.512573 
z"/>
<path fill="#5C7390" opacity="1.000000" stroke="none" 
	d="
M261.845245,278.788361 
	C261.091583,278.897675 260.342865,278.696411 259.594116,278.495178 
	C259.902985,277.784821 260.524750,277.775818 261.473755,277.828217 
	C261.808533,278.065796 261.829346,278.271790 261.845245,278.788361 
z"/>
<path fill="#8B9AA6" opacity="1.000000" stroke="none" 
	d="
M249.761429,275.699951 
	C251.672394,274.816772 252.602020,275.477112 252.595108,277.172089 
	C252.593307,277.613586 251.755814,278.417572 251.292236,278.424835 
	C249.692093,278.449982 248.752060,277.734589 249.761429,275.699951 
z"/>
<path fill="#5C7390" opacity="1.000000" stroke="none" 
	d="
M258.829773,275.544128 
	C259.624207,275.265503 259.811554,275.578705 259.688507,276.136627 
	C259.661591,276.258759 259.501831,276.418091 259.380310,276.441559 
	C258.789886,276.555603 258.547058,276.291718 258.829773,275.544128 
z"/>
</svg>